<mxfile host="Electron" modified="2025-04-17T12:43:20.204Z" agent="Mozilla/5.0 (X11; Linux x86_64) AppleWebKit/537.36 (KHTML, like Gecko) draw.io/22.0.3 Chrome/114.0.5735.289 Electron/25.8.4 Safari/537.36" etag="um1jpiLkZNKn5dABt6gJ" version="22.0.3" type="device">
  <diagram name="第 1 页" id="dFM2PXsZRZ2AqAPoMr0N">
    <mxGraphModel dx="1595" dy="1125" grid="0" gridSize="10" guides="1" tooltips="1" connect="1" arrows="1" fold="1" page="0" pageScale="1" pageWidth="827" pageHeight="1169" math="0" shadow="0">
      <root>
        <mxCell id="0" />
        <mxCell id="1" parent="0" />
        <mxCell id="nR1lRGd47g3hhMfK6c5z-1" value="" style="rounded=1;whiteSpace=wrap;html=1;" vertex="1" parent="1">
          <mxGeometry x="-182.5" y="5" width="463" height="192" as="geometry" />
        </mxCell>
        <mxCell id="nR1lRGd47g3hhMfK6c5z-2" value="main" style="text;html=1;strokeColor=none;fillColor=none;align=center;verticalAlign=middle;whiteSpace=wrap;rounded=0;" vertex="1" parent="1">
          <mxGeometry x="19" y="-29" width="60" height="30" as="geometry" />
        </mxCell>
        <mxCell id="nR1lRGd47g3hhMfK6c5z-6" value="" style="rounded=1;whiteSpace=wrap;html=1;" vertex="1" parent="1">
          <mxGeometry x="-170" y="32" width="434" height="68" as="geometry" />
        </mxCell>
        <mxCell id="nR1lRGd47g3hhMfK6c5z-3" value="&lt;div style=&quot;font-family: &amp;quot;JetBrains Mono&amp;quot;, &amp;quot;monospace&amp;quot;, monospace, &amp;quot;Droid Sans Mono&amp;quot;, &amp;quot;monospace&amp;quot;, monospace; font-weight: normal; font-size: 20px; line-height: 27px;&quot;&gt;&lt;div&gt;&lt;span style=&quot;&quot;&gt;initializeSubscribersAndPublishers&lt;/span&gt;&lt;/div&gt;&lt;/div&gt;" style="text;html=1;strokeColor=none;fillColor=none;align=center;verticalAlign=middle;whiteSpace=wrap;rounded=0;labelBackgroundColor=none;fontColor=default;" vertex="1" parent="1">
          <mxGeometry x="19" y="47" width="60" height="30" as="geometry" />
        </mxCell>
        <mxCell id="nR1lRGd47g3hhMfK6c5z-7" value="" style="rounded=1;whiteSpace=wrap;html=1;" vertex="1" parent="1">
          <mxGeometry x="-168" y="110" width="434" height="68" as="geometry" />
        </mxCell>
        <mxCell id="nR1lRGd47g3hhMfK6c5z-8" value="&lt;div style=&quot;font-family: &amp;quot;JetBrains Mono&amp;quot;, &amp;quot;monospace&amp;quot;, monospace, &amp;quot;Droid Sans Mono&amp;quot;, &amp;quot;monospace&amp;quot;, monospace; font-weight: normal; font-size: 20px; line-height: 27px;&quot;&gt;&lt;div style=&quot;line-height: 27px;&quot;&gt;run&lt;/div&gt;&lt;/div&gt;" style="text;html=1;strokeColor=none;fillColor=none;align=center;verticalAlign=middle;whiteSpace=wrap;rounded=0;fontColor=default;labelBackgroundColor=none;" vertex="1" parent="1">
          <mxGeometry x="21" y="125" width="60" height="30" as="geometry" />
        </mxCell>
        <mxCell id="nR1lRGd47g3hhMfK6c5z-9" value="" style="whiteSpace=wrap;html=1;rounded=1;" vertex="1" parent="1">
          <mxGeometry x="353" y="-29" width="408" height="314" as="geometry" />
        </mxCell>
        <mxCell id="nR1lRGd47g3hhMfK6c5z-19" value="" style="edgeStyle=orthogonalEdgeStyle;rounded=0;orthogonalLoop=1;jettySize=auto;html=1;" edge="1" parent="1" source="nR1lRGd47g3hhMfK6c5z-12" target="nR1lRGd47g3hhMfK6c5z-18">
          <mxGeometry relative="1" as="geometry" />
        </mxCell>
        <mxCell id="nR1lRGd47g3hhMfK6c5z-21" style="edgeStyle=orthogonalEdgeStyle;rounded=0;orthogonalLoop=1;jettySize=auto;html=1;exitX=0.5;exitY=1;exitDx=0;exitDy=0;entryX=0.5;entryY=0;entryDx=0;entryDy=0;" edge="1" parent="1" source="nR1lRGd47g3hhMfK6c5z-12" target="nR1lRGd47g3hhMfK6c5z-13">
          <mxGeometry relative="1" as="geometry" />
        </mxCell>
        <mxCell id="nR1lRGd47g3hhMfK6c5z-12" value="&lt;div style=&quot;font-family: &amp;quot;JetBrains Mono&amp;quot;, &amp;quot;monospace&amp;quot;, monospace, &amp;quot;Droid Sans Mono&amp;quot;, &amp;quot;monospace&amp;quot;, monospace; font-size: 20px; line-height: 27px;&quot;&gt;handleFirstFrame()&lt;/div&gt;" style="rounded=1;whiteSpace=wrap;html=1;fontColor=default;labelBackgroundColor=none;" vertex="1" parent="1">
          <mxGeometry x="386" y="69.5" width="347" height="50" as="geometry" />
        </mxCell>
        <mxCell id="nR1lRGd47g3hhMfK6c5z-22" style="edgeStyle=orthogonalEdgeStyle;rounded=0;orthogonalLoop=1;jettySize=auto;html=1;exitX=0.5;exitY=1;exitDx=0;exitDy=0;entryX=0.5;entryY=0;entryDx=0;entryDy=0;" edge="1" parent="1" source="nR1lRGd47g3hhMfK6c5z-13" target="nR1lRGd47g3hhMfK6c5z-14">
          <mxGeometry relative="1" as="geometry" />
        </mxCell>
        <mxCell id="nR1lRGd47g3hhMfK6c5z-13" value="&lt;div style=&quot;font-family: &amp;quot;JetBrains Mono&amp;quot;, &amp;quot;monospace&amp;quot;, monospace, &amp;quot;Droid Sans Mono&amp;quot;, &amp;quot;monospace&amp;quot;, monospace; font-size: 20px; line-height: 27px;&quot;&gt;processImu()&lt;/div&gt;" style="rounded=1;whiteSpace=wrap;html=1;fontColor=default;labelBackgroundColor=none;" vertex="1" parent="1">
          <mxGeometry x="386" y="138.5" width="346" height="50" as="geometry" />
        </mxCell>
        <mxCell id="nR1lRGd47g3hhMfK6c5z-14" value="&lt;div style=&quot;font-family: &amp;quot;JetBrains Mono&amp;quot;, &amp;quot;monospace&amp;quot;, monospace, &amp;quot;Droid Sans Mono&amp;quot;, &amp;quot;monospace&amp;quot;, monospace; font-size: 20px; line-height: 27px;&quot;&gt;stateEstimationAndMapping()&lt;/div&gt;" style="rounded=1;whiteSpace=wrap;html=1;fontColor=default;labelBackgroundColor=none;" vertex="1" parent="1">
          <mxGeometry x="386" y="210.5" width="348" height="50" as="geometry" />
        </mxCell>
        <mxCell id="nR1lRGd47g3hhMfK6c5z-17" style="edgeStyle=orthogonalEdgeStyle;rounded=0;orthogonalLoop=1;jettySize=auto;html=1;exitX=1;exitY=0.5;exitDx=0;exitDy=0;entryX=0;entryY=0.413;entryDx=0;entryDy=0;entryPerimeter=0;" edge="1" parent="1" source="nR1lRGd47g3hhMfK6c5z-7" target="nR1lRGd47g3hhMfK6c5z-9">
          <mxGeometry relative="1" as="geometry" />
        </mxCell>
        <mxCell id="nR1lRGd47g3hhMfK6c5z-18" value="&lt;font style=&quot;font-size: 20px;&quot;&gt;处理第一帧雷达数据&lt;/font&gt;" style="whiteSpace=wrap;html=1;rounded=1;labelBackgroundColor=none;" vertex="1" parent="1">
          <mxGeometry x="848" y="21" width="120" height="60" as="geometry" />
        </mxCell>
        <mxCell id="nR1lRGd47g3hhMfK6c5z-24" value="&lt;div style=&quot;font-family: &amp;quot;JetBrains Mono&amp;quot;, &amp;quot;monospace&amp;quot;, monospace, &amp;quot;Droid Sans Mono&amp;quot;, &amp;quot;monospace&amp;quot;, monospace; font-size: 20px; line-height: 27px;&quot;&gt;&lt;div style=&quot;line-height: 27px;&quot;&gt;sync_packages(LidarMeasures)&lt;/div&gt;&lt;/div&gt;" style="rounded=1;whiteSpace=wrap;html=1;fontColor=default;labelBackgroundColor=none;" vertex="1" parent="1">
          <mxGeometry x="383.5" y="-3" width="347" height="50" as="geometry" />
        </mxCell>
        <mxCell id="nR1lRGd47g3hhMfK6c5z-26" value="&lt;p style=&quot;text-align: justify;&quot;&gt;sync_packages&amp;nbsp;的主要作用是：1.&lt;span style=&quot;background-color: initial;&quot;&gt;检查 LiDAR、IMU 和图像数据是否可用。2.&lt;/span&gt;&lt;span style=&quot;background-color: initial;&quot;&gt;根据 SLAM 模式（ONLY_LIO、LIVO&amp;nbsp;或&amp;nbsp;ONLY_LO）同步不同类型的数据。3.&lt;/span&gt;&lt;span style=&quot;background-color: initial;&quot;&gt;将同步后的数据存储到&amp;nbsp;LidarMeasureGroup&amp;nbsp;中。&lt;/span&gt;&lt;/p&gt;&lt;p style=&quot;text-align: justify;&quot;&gt;LidarMeasureGroup &amp;amp;meas：用于存储同步后的 LiDAR、IMU 和图像数据的结构体。&lt;span style=&quot;background-color: initial;&quot;&gt;&lt;br&gt;&lt;/span&gt;&lt;/p&gt;&lt;p style=&quot;text-align: justify;&quot;&gt;三种slam mode：&lt;/p&gt;&lt;p style=&quot;text-align: justify;&quot;&gt;1.only_lio&lt;/p&gt;&lt;ul style=&quot;padding-inline-start: 24px; font-family: system-ui, Ubuntu, &amp;quot;Droid Sans&amp;quot;, &amp;quot;Source Han Sans SC&amp;quot;, &amp;quot;Source Han Sans CN&amp;quot;, &amp;quot;Source Han Sans&amp;quot;, sans-serif; font-size: 13px;&quot;&gt;&lt;li style=&quot;&quot;&gt;将同步后的 LiDAR 和 IMU 数据存储到&amp;nbsp;&lt;span class=&quot;icon-label&quot; style=&quot;padding: 0px 3px;&quot;&gt;MeasureGroup&lt;/span&gt;&amp;nbsp;中。&lt;/li&gt;&lt;/ul&gt;&lt;p style=&quot;text-align: justify;&quot;&gt;2.LIVO&lt;/p&gt;&lt;p style=&quot;text-align: justify;&quot;&gt;&lt;span style=&quot;&quot;&gt;&lt;span style=&quot;white-space: pre;&quot;&gt;&amp;nbsp;&amp;nbsp;&amp;nbsp;&amp;nbsp;&lt;/span&gt;&lt;/span&gt;三个last_lio_vio_flg：&lt;/p&gt;&lt;p style=&quot;text-align: justify;&quot;&gt;&lt;span style=&quot;white-space: pre;&quot;&gt;&#x9;&lt;/span&gt;1.wait 啥也不干&lt;br&gt;&lt;/p&gt;&lt;p style=&quot;text-align: justify;&quot;&gt;&lt;span style=&quot;white-space: pre;&quot;&gt;&#x9;&lt;/span&gt;2.vio&lt;br&gt;&lt;/p&gt;&lt;p style=&quot;text-align: justify;&quot;&gt;&lt;span style=&quot;white-space: pre;&quot;&gt;&#x9;&lt;/span&gt;&lt;span style=&quot;white-space: pre;&quot;&gt;&#x9;&lt;/span&gt;&lt;br&gt;&lt;/p&gt;&lt;p style=&quot;text-align: justify;&quot;&gt;&lt;span style=&quot;white-space: pre;&quot;&gt;&#x9;&lt;/span&gt;3.lio&lt;br&gt;&lt;/p&gt;&lt;p style=&quot;text-align: justify;&quot;&gt;3.only_lo&lt;/p&gt;" style="whiteSpace=wrap;html=1;rounded=1;labelBackgroundColor=none;align=left;" vertex="1" parent="1">
          <mxGeometry x="990" y="-281.5" width="440" height="665" as="geometry" />
        </mxCell>
      </root>
    </mxGraphModel>
  </diagram>
</mxfile>
